      <svg xmlns="http://www.w3.org/2000/svg" width="822" height="132">
         <defs>
            <style type="text/css">
               @namespace "http://www.w3.org/2000/svg";
               .line                 {fill: none; stroke: #332900;}
               .bold-line            {stroke: #141000; shape-rendering: crispEdges; stroke-width:
               2; }
               .thin-line            {stroke: #1F1800; shape-rendering: crispEdges}
               .filled               {fill: #332900; stroke: none;}
               text.terminal         {font-family: Verdana, Sans-serif;
               font-size: 12px;
               fill: #141000;
               font-weight: bold;
               }
               text.nonterminal      {font-family: Verdana, Sans-serif;
               font-size: 12px;
               fill: #1A1400;
               }
               text.regexp           {font-family: Verdana, Sans-serif;
               font-size: 12px;
               fill: #1F1800;
               }
               rect, circle, polygon {fill: #332900; stroke: #332900;}
               rect.terminal         {fill: #FFDB4D; stroke: #332900;}
               rect.nonterminal      {fill: #FFEC9E; stroke: #332900;}
               rect.text             {fill: none; stroke: none;}    
               polygon.regexp        {fill: #FFF4C7; stroke: #332900;}
               
            </style>
         </defs>
         <polygon points="9 17 1 13 1 21"/>
         <polygon points="17 17 9 13 9 21"/>
         <rect x="31" y="3" width="34" height="32" rx="10"/>
         <rect x="29" y="1" width="34" height="32" class="terminal" rx="10"/>
         <text class="terminal" x="39" y="21">v-</text>
         <a xmlns:xlink="http://www.w3.org/1999/xlink" xlink:href="#DirectiveName" xlink:title="DirectiveName">
            <rect x="85" y="3" width="106" height="32"/>
            <rect x="83" y="1" width="106" height="32" class="nonterminal"/>
            <text class="nonterminal" x="93" y="21">DirectiveName</text>
         </a>
         <rect x="251" y="67" width="24" height="32" rx="10"/>
         <rect x="249" y="65" width="24" height="32" class="terminal" rx="10"/>
         <text class="terminal" x="259" y="85">:</text>
         <a xmlns:xlink="http://www.w3.org/1999/xlink" xlink:href="#Argument" xlink:title="Argument">
            <rect x="295" y="67" width="78" height="32"/>
            <rect x="293" y="65" width="78" height="32" class="nonterminal"/>
            <text class="nonterminal" x="303" y="85">Argument</text>
         </a>
         <rect x="413" y="99" width="24" height="32" rx="10"/>
         <rect x="411" y="97" width="24" height="32" class="terminal" rx="10"/>
         <text class="terminal" x="421" y="117">.</text>
         <a xmlns:xlink="http://www.w3.org/1999/xlink" xlink:href="#Modifier" xlink:title="Modifier">
            <rect x="457" y="99" width="66" height="32"/>
            <rect x="455" y="97" width="66" height="32" class="nonterminal"/>
            <text class="nonterminal" x="465" y="117">Modifier</text>
         </a>
         <rect x="583" y="35" width="30" height="32" rx="10"/>
         <rect x="581" y="33" width="30" height="32" class="terminal" rx="10"/>
         <text class="terminal" x="591" y="53">=</text>
         <a xmlns:xlink="http://www.w3.org/1999/xlink" xlink:href="#JavascriptExpression" xlink:title="JavascriptExpression">
            <rect x="633" y="35" width="142" height="32"/>
            <rect x="631" y="33" width="142" height="32" class="nonterminal"/>
            <text class="nonterminal" x="641" y="53">JavascriptExpression</text>
         </a>
         <svg:path xmlns:svg="http://www.w3.org/2000/svg" class="line" d="m17 17 h2 m0 0 h10 m34 0 h10 m0 0 h10 m106 0 h10 m20 0 h10 m0 0 h554 m-584 0 h20 m564 0 h20 m-604 0 q10 0 10 10 m584 0 q0 -10 10 -10 m-594 10 v12 m584 0 v-12 m-584 12 q0 10 10 10 m564 0 q10 0 10 -10 m-554 10 h10 m0 0 h302 m-332 0 h20 m312 0 h20 m-352 0 q10 0 10 10 m332 0 q0 -10 10 -10 m-342 10 v12 m332 0 v-12 m-332 12 q0 10 10 10 m312 0 q10 0 10 -10 m-322 10 h10 m24 0 h10 m0 0 h10 m78 0 h10 m20 0 h10 m0 0 h120 m-150 0 h20 m130 0 h20 m-170 0 q10 0 10 10 m150 0 q0 -10 10 -10 m-160 10 v12 m150 0 v-12 m-150 12 q0 10 10 10 m130 0 q10 0 10 -10 m-140 10 h10 m24 0 h10 m0 0 h10 m66 0 h10 m40 -64 h10 m30 0 h10 m0 0 h10 m142 0 h10 m23 -32 h-3"/>
         <polygon points="813 17 821 13 821 21"/>
         <polygon points="813 17 805 13 805 21"/>
      </svg>
      <xhtml:p xmlns:xhtml="http://www.w3.org/1999/xhtml">
         <xhtml:div class="ebnf"><xhtml:pre><a href="#VueDirective" title="VueDirective">VueDirective</a>
         ::= 'v-' <a href="#DirectiveName" title="DirectiveName">DirectiveName</a> ( ( ':' <a href="#Argument" title="Argument">Argument</a> ( '.' <a href="#Modifier" title="Modifier">Modifier</a> )? )? '=' <a href="#JavascriptExpression" title="JavascriptExpression">JavascriptExpression</a> )?</xhtml:pre></xhtml:div>
      </xhtml:p>
      <xhtml:p xmlns:xhtml="http://www.w3.org/1999/xhtml">no references</xhtml:p><xhtml:br xmlns:xhtml="http://www.w3.org/1999/xhtml" /><xhtml:hr xmlns:xhtml="http://www.w3.org/1999/xhtml" />
      <xhtml:p xmlns:xhtml="http://www.w3.org/1999/xhtml">
         <xhtml:table border="0" class="signature">
            <xhtml:tr>
               <xhtml:td style="width: 100%"> </xhtml:td>
               <xhtml:td valign="top">
                  <xhtml:nobr class="signature">... generated by <xhtml:a name="Railroad-Diagram-Generator" class="signature" title="http://www.bottlecaps.de/rr/ui" href="http://www.bottlecaps.de/rr/ui" target="_blank">Railroad Diagram Generator</xhtml:a></xhtml:nobr>
               </xhtml:td>
               <xhtml:td><xhtml:a name="Railroad-Diagram-Generator" title="http://www.bottlecaps.de/rr/ui" href="http://www.bottlecaps.de/rr/ui" target="_blank">
                     <svg xmlns="http://www.w3.org/2000/svg" width="16" height="16">
                        <g transform="scale(0.178)">
                           <circle cx="45" cy="45" r="45" style="stroke:none; fill:#FFCC00"/>
                           <circle cx="45" cy="45" r="42" style="stroke:#332900; stroke-width:2px; fill:#FFCC00"/>
                           <line x1="15" y1="15" x2="75" y2="75" stroke="#332900" style="stroke-width:9px;"/>
                           <line x1="15" y1="75" x2="75" y2="15" stroke="#332900" style="stroke-width:9px;"/>
                           <text x="7" y="54" style="font-size:26px; font-family:Arial, Sans-serif; font-weight:bold; fill: #332900">R</text>
                           <text x="64" y="54" style="font-size:26px; font-family:Arial, Sans-serif; font-weight:bold; fill: #332900">R</text>
                        </g>
                     </svg>
